<?xml version="1.0" encoding="UTF-8" standalone="no"?>
<svg xmlns:dc="http://purl.org/dc/elements/1.1/" xmlns:cc="http://creativecommons.org/ns#" xmlns:rdf="http://www.w3.org/1999/02/22-rdf-syntax-ns#" xmlns:svg="http://www.w3.org/2000/svg" xmlns="http://www.w3.org/2000/svg" version="1.1" x="0px" y="0px" width="647px" height="135px" viewBox="0 0 647 135" enable-background="new 0 0 647 135" xml:space="preserve" >
   <path
     d="m 616.51335,95.284256 c -1.162,-0.812 -2.911,-0.489 -3.713,0.672 l -11.323,16.322004 -16.272,10.994 -15.836,2.866 0,-114.280004 c 0,-1.471 -1.025,-2.6669998 -2.496,-2.6669998 -1.475,0 -2.504,1.1959998 -2.504,2.6669998 l 0,117.484004 c 0,0.797 0.354,1.566 0.949,2.046 0.473,0.401 1.076,0.623 1.71,0.623 0.152,0 0.297,-0.011 0.475,-0.037 l 19.408,-3.548 c 0.371,-0.08 0.705,-0.22 0.995,-0.416 l 16.992,-11.599 c 0.261,-0.179 0.499,-0.414 0.692,-0.688 l 11.595,-16.722004 c 0.839,-1.213 0.537,-2.882 -0.672,-3.717 z" /><path
     d="m 105.14935,62.141256 -1.182,-31.398 c -0.032,-0.864 -0.479,-1.661 -1.191,-2.127 l -21.855003,-14.491 c -0.298,-0.199 -0.643,-0.339 -0.995,-0.404 l -24.6,-4.5699998 c -0.788,-0.148 -1.491,0.069 -2.092,0.572 -0.615,0.5079998 -0.864,1.2559998 -0.864,2.0529998 l 0,116.875004 c 0,1.473 1.027,2.672 2.503,2.672 1.473,0 2.497,-1.199 2.497,-2.672 l 0,-113.664004 20.98,3.888 20.297,13.436 1.157,30.214 c 0,0.151 0.024,0.301 0.059,0.466 l 3.940003,19.435 -3.698,18.957004 c -0.026,0.133 -0.043,0.244 -0.047,0.358 l -1.662003,26.601 c -0.046,0.713 0.189,1.401 0.661,1.938 0.473,0.535 1.127003,0.855 1.840003,0.898 1.459,0.084 2.736,-1.039 2.833,-2.506 l 1.644,-26.43 3.778,-19.316004 c 0.062,-0.327 0.06,-0.684 -0.008,-1.038 l -3.995,-19.747 z" /><path
     d="m 271.94535,94.453256 c -1.185,-0.8 -2.918,-0.46 -3.705,0.714 l -11.328,16.740004 -15.914,10.529 -16.629,3.304 0,-44.239004 24.387,0 c 1.477,0 2.679,-1.027 2.679,-2.496 0,-1.475 -1.202,-2.504 -2.679,-2.504 l -24.387,0 0,-61.138 6.615,1.438 -4.19,3.949 c -1.079,1.007 -1.111,2.7 -0.11,3.774 0.968,1.043 2.724,1.122 3.794,0.138 l 6.958,-6.457 8.464,1.875 21.55,14.367 c 1.191,0.797 2.92,0.449 3.707,-0.732 0.396,-0.589 0.538,-1.299 0.399,-1.999 -0.139,-0.704 -0.544,-1.31 -1.14,-1.707 l -21.968,-14.645 c -0.261,-0.176 -0.558,-0.306 -0.9,-0.39 l -5.35,-1.186 7.723,-7.1739998 c 0.525,-0.484 0.829,-1.145 0.856,-1.86 0.026,-0.714 -0.227,-1.394 -0.713,-1.914 -0.965,-1.036 -2.732,-1.104 -3.777,-0.138 l -10.424,9.6819998 -13.331,-2.9539998 c -0.785,-0.179 -1.587,0.016 -2.214,0.522 -0.632,0.5139998 -0.948,1.2729998 -0.948,2.0819998 l 0,65.486 c 0,0.358 -0.261,0.752 -0.261,1.154 0,0.398 0.261,0.791 0.261,1.149 l 0,49.173004 c 0,0.809 0.313,1.563 0.931,2.063 0.474,0.392 1.051,0.608 1.669,0.608 0.174,0 0.371,-0.01 0.515,-0.057 l 20.218,-4.047 c 0.338,-0.068 0.664,-0.206 0.946,-0.396 l 16.669,-11.108 c 0.299,-0.199 0.546,-0.45 0.727,-0.729 l 11.619,-17.171004 c 0.822,-1.215 0.5,-2.879 -0.719,-3.706 z" /><path
     d="m 208.78035,27.959256 -21.021,-14.194 c -0.324,-0.217 -0.686,-0.554 -1.025,-0.605 l -25.127,-4.6589998 c 0,0 -0.001,0 -0.001,0 -0.311,0 -0.632,0.134 -0.958,0.191 l -24.804,4.5619998 c -0.35,0.057 -0.696,0.239 -0.998,0.438 l -21.844,14.222 c -1.229,0.797 -1.582,2.465 -0.786,3.705 0.77,1.192 2.478,1.579 3.703,0.797 l 21.347,-13.907 21.104,-3.8 0,113.768004 c 0,1.476 1.029,2.676 2.503,2.676 1.471,0 2.497,-1.2 2.497,-2.676 l 0,-113.774004 21.658,3.808 20.659,13.883 c 1.199,0.801 2.975,0.45 3.759,-0.727 0.819,-1.217 0.551,-2.879 -0.666,-3.708 z" /><path
     d="m 376.44035,71.462256 -27.252,-0.324 c -1.456,0 -2.653,1.184 -2.669,2.641 -0.015,1.471 1.167,2.684 2.636,2.704 l 24.07,0.278 -2.841,15.948 -10.987,15.837004 -16.119,10.998 -18.314,3.348 -19.433,-3.969 -14.5,-9.221 0.683,-21.313004 c 0.005,-0.272 0.229,-0.505 0.172,-0.728 l -1.517,-7.037 0,-13.682 1.523,-7.072 c 0.064,-0.271 -0.036,-0.537 -0.052,-0.773 l -1.163,-21.963 0.306,-16.131 9.093,-5.453 24.873,-4.873 23.205,4.411 21.579,14.594 c 1.187,0.798 2.925,0.452 3.702,-0.712 0.403,-0.589 0.551,-1.299 0.418,-2.001 -0.135,-0.702 -0.534,-1.31 -1.126,-1.708 l -22.026,-14.902 c -0.29,-0.201 -0.635,-0.346 -1.005,-0.4179998 l -24.241,-4.603 c -0.335,-0.069 -0.693,-0.067 -1.026,-0.002 l -25.835,5.0539998 c -0.301,0.056 -0.594,0.166 -0.875,0.332 l -10.782,6.461 c -0.793,0.479 -1.277,1.315 -1.294,2.234 l -0.367,17.688 1.086,21.859 -1.83,6.977 c -0.058,0.209 -0.164,0.428 -0.164,0.67 l 0,14.338 c 0,0.238 0.107,0.465 0.159,0.654 l 1.797,6.997 -0.701,22.450004 c -0.027,0.947 0.443,1.821 1.248,2.342 l 16.184,10.289 c 0.259,0.174 0.573,0.305 0.917,0.381 l 20.457,4.177 c 0.165,0.028 0.346,0.05 0.51,0.05 0.165,0 0.312,-0.014 0.482,-0.043 l 19.383,-3.547 c 0.343,-0.064 0.681,-0.2 1.027,-0.42 l 16.977,-11.592 c 0.262,-0.174 0.495,-0.404 0.696,-0.691 l 11.604,-16.723004 c 0.224,-0.324 0.369,-0.682 0.43,-1.049 l 3.503,-19.629 c 0.136,-0.764 -0.069,-1.552 -0.568,-2.17 -0.502,-0.604 -1.243,-0.954 -2.033,-0.963 z" /><path
     d="m 548.17335,111.38426 -4.861,-18.029004 c -0.035,-0.145 -0.089,-0.293 -0.153,-0.434 l -11.396,-24.873 -9.312,-24.998 -4.676,-15.577 c -0.071,-0.219 -0.164,-0.419 -0.299,-0.653 l -10.333,-16.146 c -0.503,-0.7659998 -1.342,-1.2239998 -2.26,-1.2239998 -0.907,0 -1.772,0.484 -2.26,1.2669998 l -9.859,15.951 c -0.161,0.25 -0.25,0.507 -0.32,0.736 l -4.062,15.441 -9.623,25.311 -11.265,24.432 c -0.057,0.133 -0.106,0.273 -0.144,0.417 l -4.892,18.484004 c -0.033,0.125 -0.073,0.293 -0.081,0.458 l -1.431,16.867 c -0.063,0.713 0.154,1.406 0.614,1.954 0.46,0.547 1.104,0.88 1.783,0.937 0.093,0.012 0.185,0.014 0.262,0.014 1.398,0 2.542,-1.054 2.658,-2.45 l 1.414,-16.638 4.774,-17.808004 5.788,-12.322 54.054,0 5.91,12.674 4.748,17.493004 1.537,16.471 c 0.139,1.375 1.282,2.383 2.66,2.383 0.083,0 0.166,-0.019 0.246,-0.026 0.714,-0.063 1.358,-0.409 1.815,-0.961 0.456,-0.549 0.67,-1.247 0.602,-1.954 l -1.564,-16.733 c -0.012,-0.156 -0.032,-0.308 -0.074,-0.464 z m -67.474,-34.883004 2.956,-6.319 9.749,-25.565 c 0.035,-0.089 0.062,-0.154 0.089,-0.256 l 4.013,-15.221 7.432,-12.004 7.834,12.249 4.589,15.29 9.394,25.236 c 0.024,0.086 0.06,0.068 0.098,0.141 l 2.997,6.449 -49.151,0 z" /><path
     d="m 445.65335,30.021256 c -0.043,-0.049 -0.091,-0.101 -0.153,-0.162 l -4.577,-4.314 c -0.132,-0.141 -0.269,-0.25 -0.362,-0.302 l -5.575,-3.794 c -0.087,-0.074 -0.182,-0.135 -0.281,-0.182 l -5.336,-3.053 -5.425,-2.841 c -0.06,-0.037 -0.124,-0.069 -0.252,-0.128 l -6.676,-2.822 c -0.165,-0.066 -0.318,-0.117 -0.458,-0.143 l -5.896,-1.285 -7.015,-1.2989998 c -0.154,-0.025 -0.306,-0.038 -0.455,-0.038 l -6.371,0.229 c -1.449,0.051 -2.453,1.2209998 -2.453,2.6659998 l 0,116.701004 c 0,1.476 1.026,2.676 2.5,2.676 1.474,0 2.5,-1.2 2.5,-2.676 l 0,-47.039004 42.308,44.947004 c 0.968,1.032 2.753,1.092 3.8,0.117 1.07,-1.012 1.128,-2.867 0.118,-3.935 l -40.117,-42.843004 17.427,0 c 0.917,0 1.759,-0.3 2.252,-1.072 l 9.489,-14.768 7.982,-14.111 7.671,-12.502 c 0.608,-0.998 0.492,-2.293 -0.285,-3.166 l -4.36,-4.861 z m -0.945,6.95 -6.593,10.771 -8.004,14.178 -8.665,13.581 -22.077,0 0,-60.367 3.573,-0.125 6.593,1.214 5.635,1.227 6.3,2.66 5.264,2.753 5.237,2.988 5.4,3.688 4.354,4.097 2.983,3.335 z m -21.31,-20.925 0,0 0,0 0,0 z" /><path
     d="m 33.826347,1.3692562 c -0.354,0 -0.702,0.07 -1.029,0.208 L 8.3263467,11.809256 c -0.66,0.277 -1.172,0.795 -1.442,1.459 -0.268,0.66 -0.263,1.383 0.012,2.031 0.286,0.686 0.848,1.225 1.541,1.479 0.626,0.229 1.303,0.217 1.9240003,-0.041 l 8.008,-3.358 0,9.417 -0.5,10.537 -0.162,15.834 -0.97,10.298 -7.3570003,13.219 c -0.537,0.953 -0.431,2.155 0.254,2.983 l 6.5770003,8.133 c 0.036,0.047 0.077,0.096 0.124,0.149 l 6.28,6.847 -7.461,12.164004 c -0.228,0.379 -0.36,0.811 -0.382,1.245 l -1.212,21.628 -0.058,0.609 -9.5380003,-1.807 c -1.48,-0.279 -2.86,0.709 -3.11599997,2.119 -0.145,0.725 0.026,1.486 0.46899997,2.089 0.394,0.538 0.979,0.907 1.652,1.039 l 26.0600003,4.937 c 0.167,0.031 0.333,0.047 0.498,0.047 1.285,0 2.39,-0.914 2.628,-2.176 0.268,-1.452 -0.69,-2.852 -2.133,-3.119 l -11.248,-2.131 1.293,-22.267 8.149,-13.300004 c 0.623,-1.009 0.497,-2.326 -0.306,-3.203 l -7.56,-8.248 -5.428,-6.715 6.753,-12.128 c 0.172,-0.308 0.285,-0.663 0.329,-1.048 l 1.044,-10.957 c 0.007,-0.067 0.013,-0.133 0.013,-0.203 l -0.023,-15.807 0.331,-10.553 0,-11.412 c 0,-0.146 0.179,-0.291 0.155,-0.436 l 11.238,-4.6579998 c 0.658,-0.273 1.217,-0.789 1.488,-1.451 0.271,-0.662 0.291,-1.389 0.013,-2.049 -0.42,-0.994 -1.363,-1.636 -2.437,-1.636 z" /></svg>
