<?xml version="1.0" encoding="UTF-8" standalone="no"?>
<svg xmlns:dc="http://purl.org/dc/elements/1.1/" xmlns:cc="http://creativecommons.org/ns#" xmlns:rdf="http://www.w3.org/1999/02/22-rdf-syntax-ns#" xmlns:svg="http://www.w3.org/2000/svg" xmlns="http://www.w3.org/2000/svg" version="1.1" x="0px" y="0px" width="500px" height="135px" viewBox="0 0 500 135" enable-background="new 0 0 500 135" xml:space="preserve" >
<g>
<path
       d="m 174.12663,124.16551 c 1.471,0 2.499,-1.198 2.499,-2.671 l 0,-48.257002 41.997,44.943002 c 0.967,1.037 2.609,1.094 3.64,0.123 1.071,-1.005 1.059,-2.723 0.053,-3.803 l -40.207,-42.699002 17.43,0 c 0.916,0 1.759,-0.438 2.256,-1.212 l 9.461,-14.811 8.007,-14.169 7.668,-12.521 c 0.624,-1.016 0.506,-2.293 -0.291,-3.176 l -4.324,-4.836 c -0.059,-0.073 -0.134,-0.149 -0.188,-0.195 l -4.592,-4.339 c -0.101,-0.101 -0.218,-0.188 -0.344,-0.277 l -5.711,-3.893 -5.47,-3.1260005 -5.474,-2.873 c -0.06,-0.034 -0.121,-0.062 -0.21,-0.1 l -6.628,-2.803 c -0.181,-0.087 -0.361,-0.135 -0.511,-0.169 l -5.975,-1.295 -6.897,-1.27599996 c -0.165,-0.034 -0.332,-0.051 -0.496,-0.051 l -6.057,0.229 c -1.446,0.051 -2.14,1.22399996 -2.14,2.66899996 l 0,117.9180025 c 0.003,1.472 1.032,2.67 2.504,2.67 z m 2.499,-57.364002 0,-60.6440005 3.256,-0.125 6.441,1.214 5.554,1.22 6.268,2.6630005 5.239,2.755 5.227,2.987 5.399,3.685 4.353,4.107 2.973,3.327 -6.695,10.95 -7.897,14.147 -8.663,13.714 -21.455,0 z" /><path
       d="m 249.43263,124.25351 c 0.06,0 0.12,-0.001 0.198,-0.005 l 10.133,-0.789 36.467,-4.359 c 0.614,-0.07 1.19,-0.355 1.624,-0.807 l 5.109,-5.363 0.086,-0.101 c 0.061,-0.071 0.118,-0.141 0.188,-0.237 l 7.155,-10.486 c 0.141,-0.208 0.241,-0.408 0.299,-0.586 l 2.032,-5.584002 2.286,-5.846 1.897,-6.72 c 0.028,-0.103 0.051,-0.206 0.055,-0.262 l 1.015,-6.845 0.781,-6.238 c 0.094,-0.768 -0.145,-1.645 -0.649,-2.209 -0.508,-0.575 -1.238,-1.015 -2.003,-1.015 l -52.585,0 48.263,-20.062 c 0.681,-0.282 1.204,-0.767 1.476,-1.474 0.26,-0.692 0.215,-1.442 -0.12,-2.101 l -3.068,-6.126 -3.138,-5.479 c -0.076,-0.138 -0.167,-0.265 -0.253,-0.363 l -4.346,-5.375 c -0.072,-0.085 -0.133,-0.151 -0.184,-0.197 l -4.309,-4.314 -4.69,-4.436 -0.105,-0.088 c -0.052,-0.043 -0.104,-0.085 -0.125,-0.099 l -5.116,-3.839 -5.773,-3.6790005 c -0.094,-0.062 -0.183,-0.113 -0.299,-0.171 l -5.854,-2.797 c -0.045,-0.024 -0.092,-0.044 -0.197,-0.089 l -5.857,-2.289 c -0.113,-0.048 -0.251,-0.101 -0.352,-0.115 l -6.189,-1.546 -6.736,-1.29999996 c -0.111,-0.02 -0.238,-0.033 -0.385,-0.043 l -6.637,-0.256 -0.102,-0.002 c -0.68,0 -0.918,0.271 -1.416,0.74699996 -0.528,0.51 -0.383,1.193 -0.383,1.924 l 0,118.3490025 c 0,0.74 -0.125,1.455 0.421,1.964 0.499,0.456 0.712,0.708 1.386,0.708 z m 3.193,-58.244002 0,-60.0000005 3.396,0.141 6.199,1.217 5.854,1.485 5.568,2.1890005 5.654,2.709 5.368,3.416 4.896,3.669 4.489,4.243 4.199,4.189 4.149,5.127 2.913,5.093 2.037,3.538 -54.722,22.984 z m 6.776,6.792 53.682,0 -0.388,2.867 -0.995,6.598 -1.697,6.006 -2.233,5.693 -1.98,5.426 -6.848,10.012002 -4.299,4.514 -34.997,4.222 -7.021,0.56 0,-46.332002 6.776,0.434 z" /><path
       d="m 411.62563,120.79751 c 0,0.797 0.128,1.549 0.755,2.074 0.479,0.385 0.966,0.598 1.575,0.598 0.182,0 0.293,-0.015 0.472,-0.048 l 20.198,-4.052 c 0.342,-0.071 0.658,-0.207 0.944,-0.396 l 16.657,-11.11 c 0.31,-0.209 0.556,-0.465 0.718,-0.729 l 11.623,-17.172002 c 0.818,-1.225 0.494,-2.889 -0.721,-3.707 -1.179,-0.801 -2.916,-0.459 -3.709,0.717 l -11.322,16.739002 -15.738,10.52 -16.452,3.312 0,-45.742002 24.032,0 c 1.476,0 2.675,-1.025 2.675,-2.498 0,-1.475 -1.199,-2.502 -2.675,-2.502 l -24.032,0 0,-61.1070005 21.228,4.7160005 21.524,14.373 c 1.193,0.791 2.912,0.436 3.693,-0.745 0.816,-1.229 0.478,-2.891 -0.747,-3.706 l -21.977,-14.6480005 c -0.268,-0.176 -0.568,-0.304 -0.901,-0.382 l -25.016,-5.54699996 c -0.794,-0.172 -1.417,0.026 -2.032,0.529 -0.634,0.515 -0.772,1.27199996 -0.772,2.07899996 l 0,65.4910005 c 0,0.357 -0.26,0.749 -0.26,1.147 0,0.397 0.26,0.789 0.26,1.145 l 0,50.651002 z" /><path
       d="m 340.12463,124.16551 c 1.476,0 2.501,-1.198 2.501,-2.671 l 0,-48.257002 42.028,44.943002 c 0.965,1.037 2.618,1.1 3.667,0.121 1.064,-1.01 1.058,-2.727 0.053,-3.801 l -40.192,-42.699002 17.431,0 c 0.91,0 1.75,-0.438 2.248,-1.212 l 9.529,-14.908 7.94,-14.071 7.682,-12.526 c 0.617,-1.019 0.498,-2.293 -0.294,-3.171 l -4.349,-4.869 -4.746,-4.487 c -0.121,-0.127 -0.25,-0.219 -0.361,-0.292 l -5.719,-3.901 -5.471,-3.1260005 -5.451,-2.861 c -0.089,-0.05 -0.175,-0.089 -0.222,-0.104 l -6.623,-2.8 c -0.147,-0.072 -0.306,-0.126 -0.51,-0.172 l -5.981,-1.295 -6.888,-1.27299996 c -0.161,-0.036 -0.329,-0.054 -0.5,-0.054 l -6.097,0.229 c -1.446,0.05 -2.174,1.22299996 -2.174,2.66799996 l 0,117.9180025 c 0,1.473 1.025,2.671 2.499,2.671 z m 2.501,-57.364002 0,-60.6440005 3.29,-0.125 6.464,1.214 5.56,1.22 6.273,2.6640005 5.248,2.755 5.222,2.987 5.4,3.684 4.353,4.108 2.978,3.327 -6.699,10.949 -7.899,14.148 -8.669,13.713 -21.521,0 z m 34.403,-53.76 0,0 0,0 0,0 z" /><path
       d="m 77.908628,82.633508 -4.882,18.466002 c -0.046,0.153 -0.073,0.317 -0.089,0.491 l -1.437,17.83 c -0.115,1.467 0.983,2.756 2.414,2.873 0.081,0.01 0.17,0.017 0.256,0.017 1.38,0 2.547,-1.082 2.656,-2.462 l 1.414,-17.592 4.771,-17.969002 5.788,-12.486 54.059002,0 5.913,12.838 4.743,17.572002 1.537,17.454 c 0.126,1.387 1.265,2.425 2.647,2.425 0.084,0 0.169,-0.008 0.247,-0.016 1.462,-0.128 2.553,-1.426 2.433,-2.897 l -1.567,-17.726 c -0.017,-0.141 -0.039,-0.271 -0.076,-0.432 l -4.868,-18.078002 c -0.04,-0.131 -0.088,-0.262 -0.146,-0.389 l -11.401,-24.874 -9.312,-24.992 -4.669,-15.574 c -0.079,-0.25 -0.197,-0.494 -0.359,-0.737 l -10.327,-14.9260005 c -0.498,-0.71899996 -1.317,-1.14699996 -2.203,-1.14699996 -0.896,0 -1.725,0.444 -2.215,1.18399996 l -9.875,14.7560005 c -0.167,0.255 -0.288,0.522 -0.358,0.792 l -4.063002,15.439 -9.621,25.317 -11.271,24.435 c -0.059,0.138 -0.11,0.285 -0.139,0.408 z m 13.355,-15.832 2.931,-6.59 9.794002,-25.858 c 0.028,-0.086 0.055,-0.232 0.062,-0.275 l 4.005,-15.212 7.438,-11.1290005 7.853,11.3380005 4.569,15.222 9.412,25.275 c 0.027,0.086 0.055,0.389 0.087,0.455 l 2.995,6.774 -49.146002,0 z" /><path
       d="m 42.612628,106.75151 11.6,-16.726002 c 0.832,-1.209 0.531,-2.877 -0.674,-3.719 -1.173,-0.812 -2.907,-0.493 -3.718,0.676 l -11.311,16.319002 -16.164,10.994 -15.7199999,2.867 0,-114.4520025 c 0,-1.473 -1.028,-2.67099996 -2.5,-2.67099996 -1.472,0 -2.5,1.19899996 -2.5,2.67099996 l 0,117.6510025 c 0,0.799 0.227,1.551 0.841,2.062 0.478,0.396 1.021,0.614 1.642,0.614 0.166,0 0.3,-0.015 0.454,-0.045 l 19.3649999,-3.542 c 0.37,-0.068 0.718,-0.217 1.013,-0.423 l 16.996,-11.599 c 0.268,-0.185 0.493,-0.413 0.676,-0.677 z" /><path
       d="m 59.925628,24.471508 c 0.681,0 1.329,-0.254 1.821,-0.713 l 19.444,-18.0490005 c 1.07,-1.009 1.126,-2.703 0.131,-3.772 -0.957,-1.04099996 -2.743,-1.10399996 -3.773,-0.139 l -19.433,18.0430005 c -0.523,0.479 -0.827,1.133 -0.857,1.842 -0.03,0.717 0.222,1.404 0.715,1.939 0.514,0.548 1.208,0.849 1.952,0.849 z" />
</g>
</svg>
