<?xml version="1.0" encoding="utf-8"?>
<!-- Generator: Adobe Illustrator 16.0.4, SVG Export Plug-In . SVG Version: 6.00 Build 0)  -->
<!DOCTYPE svg PUBLIC "-//W3C//DTD SVG 1.1//EN" "http://www.w3.org/Graphics/SVG/1.1/DTD/svg11.dtd">
<svg version="1.1" xmlns="http://www.w3.org/2000/svg" xmlns:xlink="http://www.w3.org/1999/xlink" x="0px" y="0px" width="131px" height="131px" viewBox="0 0 131 131" enable-background="new 0 0 132 131" xml:space="preserve">
<g id="recap">
    <circle fill="#FFFFFF" cx="65.985001" cy="65.111" r="64.629997"  />
</g>
<g>
    <path d="M 75.777,85.88 73.244,76.464 C 73.218,76.375 73.183,76.281 73.141,76.188 L 67.224,63.287 62.391,50.319 59.96,42.214 C 59.901,42.027 59.817,41.852 59.701,41.68 l -5.372,-7.768 c -0.364,-0.519 -0.958,-0.828 -1.597,-0.828 -0.642,0.003 -1.239,0.322 -1.601,0.859 l -5.139,7.681 c -0.118,0.182 -0.205,0.375 -0.257,0.573 l -2.116,8.025 -4.972,13.082 -5.867,12.729 c -0.038,0.09 -0.069,0.181 -0.099,0.286 l -2.542,9.609 c -0.029,0.109 -0.049,0.227 -0.06,0.347 l -0.746,9.277 c -0.084,1.063 0.712,1.996 1.737,2.076 l 0.191,0.011 c 0.999,0 1.846,-0.781 1.926,-1.778 l 0.732,-9.104 2.458,-9.288 2.844,-6.168 27.423,0 2.911,6.352 2.444,9.068 0.796,9.039 c 0.09,1.005 0.916,1.763 1.922,1.763 l 0.171,-0.008 c 1.061,-0.092 1.851,-1.029 1.761,-2.095 l -0.814,-9.224 c -0.01,-0.106 -0.03,-0.212 -0.058,-0.316 z m -34.77,-18.449 1.174,-2.545 5.106,-13.424 2.107,-7.966 3.374,-5.042 3.58,5.175 2.361,7.873 4.917,13.198 1.247,2.731 -23.866,0 z" />
  <path d="m 102.491,30.783 c -0.404,-0.959 -1.577,-1.438 -2.528,-1.036 l -12.73,5.323 c -0.479,0.201 -0.851,0.578 -1.046,1.06 -0.193,0.479 -0.188,1.002 0.009,1.463 0.205,0.497 0.611,0.889 1.119,1.076 0.453,0.166 0.956,0.156 1.411,-0.031 l 3.423,-1.431 0.001,4.054 -0.273,5.557 -0.088,8.137 -0.498,5.244 -3.773,6.775 c -0.39,0.695 -0.315,1.545 0.186,2.16 l 3.425,4.233 3.071,3.358 -3.659,5.973 c -0.167,0.269 -0.267,0.581 -0.287,0.91 l -0.611,10.947 -4.366,-0.826 c -1.069,-0.2 -2.069,0.516 -2.258,1.541 -0.1,0.529 0.026,1.08 0.34,1.5 0.285,0.393 0.707,0.661 1.199,0.76 l 13.557,2.566 c 0.121,0.022 0.242,0.034 0.362,0.034 0.928,0 1.727,-0.663 1.897,-1.576 0.196,-1.047 -0.494,-2.061 -1.54,-2.259 l -5.366,-1.016 0.621,-10.972 4.169,-6.805 c 0.448,-0.732 0.356,-1.685 -0.224,-2.317 l -3.912,-4.266 -2.589,-3.203 3.327,-5.98 c 0.133,-0.231 0.215,-0.487 0.244,-0.769 l 0.537,-5.672 0.102,-8.382 0.271,-5.584 0,-5.739 5.448,-2.278 c 0.979,-0.415 1.441,-1.55 1.029,-2.529 z" />
</g>
</svg>
