<?xml version="1.0" encoding="UTF-8" standalone="no"?>
<!-- Created with Inkscape (http://www.inkscape.org/) -->

<svg
   xmlns:dc="http://purl.org/dc/elements/1.1/"
   xmlns:cc="http://creativecommons.org/ns#"
   xmlns:rdf="http://www.w3.org/1999/02/22-rdf-syntax-ns#"
   xmlns:svg="http://www.w3.org/2000/svg"
   xmlns="http://www.w3.org/2000/svg"
   xmlns:sodipodi="http://sodipodi.sourceforge.net/DTD/sodipodi-0.dtd"
   xmlns:inkscape="http://www.inkscape.org/namespaces/inkscape"
   width="28.902624mm"
   height="5.8141308mm"
   viewBox="0 0 102.41087 20.601251"
   id="svg3559"
   version="1.1"
   inkscape:version="0.91 r13725"
   sodipodi:docname="region_aquitaine.svg">
  <defs
     id="defs3561">
    <clipPath
       clipPathUnits="userSpaceOnUse"
       id="clipPath3429">
      <path
         d="m 0,420.945 297.64,0 L 297.64,0 0,0 0,420.945 Z"
         id="path3431"
         inkscape:connector-curvature="0" />
    </clipPath>
  </defs>
  <sodipodi:namedview
     id="base"
     pagecolor="#ffffff"
     bordercolor="#666666"
     borderopacity="1.0"
     inkscape:pageopacity="0.0"
     inkscape:pageshadow="2"
     inkscape:zoom="0.35"
     inkscape:cx="-749.50885"
     inkscape:cy="41.7292"
     inkscape:document-units="px"
     inkscape:current-layer="layer1"
     showgrid="false"
     fit-margin-top="0"
     fit-margin-left="0"
     fit-margin-right="0"
     fit-margin-bottom="0"
     inkscape:window-width="1358"
     inkscape:window-height="766"
     inkscape:window-x="1221"
     inkscape:window-y="1080"
     inkscape:window-maximized="0" />
  <metadata
     id="metadata3564">
    <rdf:RDF>
      <cc:Work
         rdf:about="">
        <dc:format>image/svg+xml</dc:format>
        <dc:type
           rdf:resource="http://purl.org/dc/dcmitype/StillImage" />
        <dc:title></dc:title>
      </cc:Work>
    </rdf:RDF>
  </metadata>
  <g
     inkscape:label="Calque 1"
     inkscape:groupmode="layer"
     id="layer1"
     transform="translate(-497.36599,-553.49016)">
    <g
       transform="matrix(1.25,0,0,-1.25,440.23999,647.53103)"
       id="g3425">
      <g
         id="g3427"
         clip-path="url(#clipPath3429)">
        <g
           id="g3433"
           transform="translate(105.3887,63.1426)">
          <path
             d="M 0,0 0.658,1.612 1.32,0 0,0 Z m 0.17,2.93 -2.133,-5.012 1.117,0 0.453,1.114 2.106,0.002 0.455,-1.116 1.145,0 -2.135,5.012 -1.008,0 z m -2.102,-1.046 0,1.009 -4.121,0 0,-1.01 1.514,0 0.002,-3.968 1.092,0 0,3.968 1.513,10e-4 z m -4.08,5.4 0,0.014 c 0,0.853 0.612,1.551 1.492,1.551 0.881,0 1.508,-0.712 1.508,-1.565 l 0,-0.013 c 0,-0.854 -0.611,-1.551 -1.492,-1.551 -0.883,0 -1.508,0.711 -1.508,1.564 m 4.145,0 0,0.014 c 0,1.416 -1.104,2.559 -2.639,2.559 -1.535,-10e-4 -2.65,-1.16 -2.65,-2.573 l 0,-0.015 c 0,-1.414 1.101,-2.559 2.636,-2.559 1.538,0 2.653,1.161 2.653,2.574 m -6.348,-4.393 0.002,-4.976 1.094,0 -0.002,4.978 -1.094,-0.002 z m 10.84,6.883 0,-3.065 -2.33,3.063 -1.01,0 0,-4.976 1.08,0 0,3.164 2.41,-3.162 0.932,0 -0.002,4.976 -1.08,0 z m 13.783,-10.879 -2.701,0 -0.002,1.043 2.346,0 0,0.975 -2.346,-0.001 0,1.009 2.666,0 0,0.975 -3.754,0 0,-4.977 3.791,10e-4 0,0.975 z m -6.244,4.001 0.002,-3.065 -2.334,3.065 -1.01,-10e-4 0.002,-4.976 1.082,0 -0.004,3.162 2.412,-3.162 0.932,0 0,4.977 -1.082,0 z m -5.857,-10e-4 0,-4.977 1.095,0 -0.002,4.977 -1.093,0 z m -13.76,1.899 1.096,0 0,4.977 -1.096,0 0,-4.977 z m -6.658,-4.406 c 0,-0.248 -0.043,-0.476 -0.137,-0.682 l -0.816,0.739 -0.698,-0.783 0.813,-0.689 c -0.194,-0.085 -0.414,-0.135 -0.656,-0.135 -0.883,0 -1.508,0.711 -1.508,1.563 l 0,0.015 c 0,0.854 0.611,1.549 1.492,1.551 0.883,0 1.508,-0.711 1.51,-1.566 l 0,-0.013 z m 1.142,0.015 0,0.014 c 0,1.415 -1.099,2.559 -2.638,2.559 -1.534,0 -2.651,-1.16 -2.651,-2.575 l 0,-0.013 c 0.002,-1.416 1.104,-2.559 2.639,-2.559 0.555,0 1.058,0.155 1.478,0.427 l 0.547,-0.491 0.698,0.775 -0.514,0.433 c 0.285,0.413 0.441,0.911 0.441,1.43 m -8.361,8.378 c 0.533,0 0.859,-0.241 0.859,-0.712 l 0,-0.013 c 0,-0.419 -0.304,-0.704 -0.838,-0.704 l -1.109,0 0,1.429 1.088,0 z m -1.088,-3.989 0,1.594 0.848,0 0.013,0 1.067,-1.593 1.279,0 -1.217,1.777 c 0.633,0.235 1.069,0.74 1.069,1.543 l 0,0.014 c 0,0.468 -0.153,0.86 -0.43,1.139 -0.326,0.326 -0.816,0.503 -1.449,0.503 l -2.274,0 0,-4.977 1.094,0 z m 0.441,-4.797 0.663,1.614 0.662,-1.614 -1.325,0 z m 0.172,2.93 -2.132,-5.013 1.115,10e-4 0.457,1.116 2.103,0 0.453,-1.116 1.147,0 -2.135,5.012 -1.008,0 z m 7.399,1.868 0,0.976 -2.701,-0.002 0,1.045 2.347,10e-4 -0.004,0.973 -2.343,0 0,1.011 2.666,0 -0.002,0.973 -3.752,0 0,-4.977 3.789,0 z m -0.776,6.222 -0.931,0.405 -0.803,-1.259 0.826,0 0.908,0.854 z m 6.45,-5.517 0,2.162 -2.161,-0.002 0,-0.945 1.102,0 0,-0.709 c -0.277,-0.199 -0.633,-0.299 -1.031,-0.299 -0.883,-0.002 -1.508,0.667 -1.508,1.577 l 0,0.015 c 0,0.846 0.633,1.55 1.43,1.55 0.574,0 0.918,-0.185 1.3,-0.505 l 0.688,0.832 c -0.518,0.44 -1.059,0.682 -1.955,0.681 -1.504,0 -2.608,-1.159 -2.608,-2.573 l 0,-0.014 c 0,-1.472 1.069,-2.559 2.618,-2.559 0.908,0 1.613,0.356 2.125,0.789 m 0.08,-2.607 0,-2.85 c 0,-0.79 -0.407,-1.195 -1.073,-1.195 -0.67,0 -1.076,0.42 -1.076,1.229 l 0,2.816 -1.095,0 0.003,-2.845 c 0,-1.464 0.817,-2.211 2.151,-2.208 1.34,0 2.183,0.738 2.183,2.245 l 0,2.808 -1.093,0 z"
             style="fill:#0079c0;fill-opacity:1;fill-rule:nonzero;stroke:none"
             id="path3435"
             inkscape:connector-curvature="0" />
        </g>
        <g
           id="g3437"
           transform="translate(54.2188,60.9297)">
          <path
             d="m 0,0 c 2.566,3.366 4.25,10.65 4.25,12.493 l 1.969,0 c 0.052,0.597 0.092,1.2 0.119,1.81 l -14.856,0 0,-16.481 9.373,0 C 1.439,-1.55 1.986,-0.82 2.494,0 L 0,0 Z"
             style="fill:#0079c0;fill-opacity:1;fill-rule:nonzero;stroke:none"
             id="path3439"
             inkscape:connector-curvature="0" />
        </g>
        <g
           id="g3441"
           transform="translate(65.2383,62.6982)">
          <path
             d="M 0,0 -0.406,0.985 C 1.352,0.498 5.375,-0.106 7.357,0.019 l 0.868,-1.7 C 7.135,-1.681 1.332,-0.534 0,0 M -0.98,2.331 C 1.176,2.243 3.713,2.277 5.949,2.811 L 6.74,1.202 C 5.426,0.907 1.051,1.112 -0.625,1.5 L -0.98,2.331 Z M -1.562,3.76 C -0.588,3.723 3.072,4.462 4.625,5.441 L 5.416,3.885 C 4.828,3.518 1.467,2.665 -1.176,2.832 L -1.562,3.76 Z m -0.502,1.18 c 1,0.243 4.16,1.684 5.437,3.033 L 4.037,6.661 C 3.441,6.082 1.266,4.811 -1.748,4.202 L -2.064,4.94 Z M -2.58,6.176 C -1.402,6.858 1.299,9.507 2,10.707 L 2.74,9.285 C 2.287,8.689 0.057,6.396 -2.25,5.369 L -2.58,6.176 Z M -6.285,3.217 C -6.74,3.537 -7.109,3.811 -7.26,3.93 l 2.389,0.925 1.359,-3.27 C -4.17,1.791 -5.396,2.596 -6.285,3.217 m 1.603,9.317 c -0.027,-0.609 -0.066,-1.213 -0.119,-1.809 l 5.237,-12.494 -2.215,0 -3.567,8.55 C -5.408,6.471 -5.473,6.162 -5.543,5.855 -5.629,5.471 -5.723,5.059 -5.797,4.818 -5.805,4.796 -5.803,4.8 -5.811,4.781 L -7.842,3.996 -6.361,2.9 C -6.396,2.802 -6.443,2.666 -6.5,2.515 -6.578,2.301 -6.678,2.039 -6.795,1.748 c -0.387,-0.99 -0.818,-1.916 -1.287,-2.764 -0.143,-0.26 -0.291,-0.512 -0.443,-0.753 -0.508,-0.82 -1.055,-1.549 -1.639,-2.177 l 20.047,0 0,16.48 -14.565,0 z"
             style="fill:#00a053;fill-opacity:1;fill-rule:nonzero;stroke:none"
             id="path3443"
             inkscape:connector-curvature="0" />
        </g>
        <g
           id="g3445"
           transform="translate(127.293,74.6191)">
          <path
             d="M 0,0 0,-15.254"
             style="fill:none;stroke:#0079c0;stroke-width:0.67299998;stroke-linecap:butt;stroke-linejoin:miter;stroke-miterlimit:10;stroke-dasharray:none;stroke-opacity:1"
             id="path3447"
             inkscape:connector-curvature="0" />
        </g>
      </g>
    </g>
  </g>
</svg>
