<?xml version="1.0" standalone="no"?>
<!DOCTYPE svg PUBLIC "-//W3C//DTD SVG 20010904//EN"
 "http://www.w3.org/TR/2001/REC-SVG-20010904/DTD/svg10.dtd">
<svg version="1.0" xmlns="http://www.w3.org/2000/svg"
 width="500.000000pt" height="500.000000pt" viewBox="0 0 500.000000 500.000000"
 preserveAspectRatio="xMidYMid meet">
<metadata>
Created by potrace 1.11, written by Peter Selinger 2001-2013
</metadata>
<g transform="translate(0.000000,500.000000) scale(0.100000,-0.100000)"
fill="#000000" stroke="none">
<path d="M2250 4929 c-318 -35 -604 -121 -880 -265 -679 -354 -1146 -994
-1280 -1755 -28 -157 -38 -504 -21 -671 41 -379 187 -785 393 -1093 322 -480
785 -824 1335 -990 574 -174 1224 -123 1768 140 312 151 629 403 838 665 293
367 479 818 528 1278 17 167 7 514 -21 671 -185 1047 -1002 1847 -2050 2006
-125 19 -488 28 -610 14z m1384 -1172 c12 -9 17 -23 14 -42 -3 -27 -12 -33
-103 -72 -55 -23 -103 -43 -106 -45 -4 -2 -12 -169 -18 -373 -17 -502 -18
-512 -80 -622 -84 -150 -84 -129 -3 -225 39 -45 94 -108 121 -138 28 -30 51
-63 51 -74 0 -10 -32 -70 -72 -134 -82 -132 -81 -131 -93 -374 -8 -178 -18
-159 95 -178 36 -6 79 -16 97 -21 41 -13 52 -44 25 -72 l-20 -20 -249 47
c-136 26 -253 52 -260 58 -18 14 -16 53 3 68 12 11 32 10 110 -4 52 -10 96
-17 98 -15 2 2 8 95 13 206 l11 202 71 117 72 117 -49 51 c-83 86 -193 224
-195 243 0 10 29 73 66 140 62 112 68 128 77 205 10 92 25 748 18 748 -3 0
-38 -13 -78 -30 -86 -36 -91 -36 -115 -10 -36 40 -15 55 235 160 129 55 238
99 241 100 3 0 13 -6 23 -13z m-1555 -262 c97 -141 100 -147 142 -287 63 -214
198 -564 314 -819 132 -288 186 -476 208 -724 13 -139 13 -163 1 -182 -18 -29
-50 -29 -68 0 -8 13 -18 81 -25 172 -16 195 -70 406 -150 587 l-56 128 -488
-3 -488 -2 -53 -115 c-77 -168 -132 -387 -149 -597 -15 -170 -22 -193 -63
-193 -41 0 -44 25 -29 206 23 262 73 438 208 731 127 276 262 629 311 816 37
137 38 141 133 282 90 136 111 157 140 147 7 -2 57 -69 112 -147z"/>
<path d="M1878 3407 c-61 -93 -69 -114 -102 -237 -33 -127 -190 -560 -235
-649 -12 -22 -21 -45 -21 -51 0 -7 142 -10 440 -10 l440 0 -16 38 c-50 111
-209 546 -245 667 -38 127 -48 149 -112 243 -38 56 -73 102 -76 102 -3 0 -36
-46 -73 -103z"/>
</g>
</svg>
