<svg xmlns="http://www.w3.org/2000/svg" viewBox="0 0 450 450"><defs><style>.a{fill:#000100;}.b{fill:#fff;stroke:#fff;stroke-miterlimit:10;}</style></defs><title>logo-home</title><circle class="a" cx="225" cy="225" r="225"/><path class="b" d="M56.15,304.43l0.13-1.35s0,0,0,0L57,290.34l4.94-8.07a1.09,1.09,0,0,0-.12-1.31l-4.54-5-3.46-4.28L58,264.17a1.12,1.12,0,0,0,.13-0.43l0.62-6.54a0.55,0.55,0,0,0,0-.09l0.1-9.48,0.31-6.31v-6.8a1.09,1.09,0,1,0-2.18,0v6.72l-0.31,6.31v0L56.6,257,56,263.3l-4.46,8a1.08,1.08,0,0,0,.11,1.22l3.95,4.88,0,0.05,4,4.38L55,289.43a1.11,1.11,0,0,0-.16.51l-0.73,13L54,304.22a1.09,1.09,0,0,0,1,1.19h0.1a1.09,1.09,0,0,0,1.09-1M183,242l11.63-10.8a1.09,1.09,0,1,0-1.48-1.6l-11.63,10.8A1.09,1.09,0,0,0,183,242M51.51,237.12L66.15,231a1.09,1.09,0,0,0-.84-2l-14.64,6.12a1.09,1.09,0,0,0,.84,2m-4.15,67.65,15.59,3a1.09,1.09,0,0,0,.41-2.14l-15.59-3a1.09,1.09,0,0,0-.41,2.14m192.7-1,11.59-2.12a1.16,1.16,0,0,0,.42-0.17l10.16-6.94a1.05,1.05,0,0,0,.28-0.28l6.94-10a1.11,1.11,0,0,0,.18-0.43l2.09-11.74a1.08,1.08,0,0,0-1.06-1.28l-16.28-.19h0a1.09,1.09,0,0,0,0,2.18l15,0.18-1.83,10.24-6.69,9.64L251,299.57l-11.16,2-11.82-2.41-9-5.72,0.42-13a1.21,1.21,0,0,0,0-.3l-1.07-4.27v-8.31l1.08-4.28a1.06,1.06,0,0,0,0-.32l-0.66-13.17,0.21-9.93,5.77-3.45,15.07-2.95L254,236.12l13,8.79a1.09,1.09,0,1,0,1.22-1.8L255,234.19a1.05,1.05,0,0,0-.41-0.17l-14.51-2.76a1.07,1.07,0,0,0-.41,0l-15.46,3a1.06,1.06,0,0,0-.35.13l-6.45,3.86a1.1,1.1,0,0,0-.53.91l-0.22,10.57v0.08l0.65,13-1.07,4.26a1,1,0,0,0,0,.26V276a1,1,0,0,0,0,.26l1.07,4.26L216.87,294a1.1,1.1,0,0,0,.51,1l9.69,6.17a1.08,1.08,0,0,0,.37.15l12.22,2.5,0.22,0,0.2,0M384.88,306l11.59-2.12a1.16,1.16,0,0,0,.42-0.17l10.16-6.94a1.14,1.14,0,0,0,.28-0.28l6.94-10a1.09,1.09,0,0,0-1.79-1.24l-6.82,9.84-9.81,6.69-10.08,1.84v-69a1.09,1.09,0,0,0-2.18,0V305a1.09,1.09,0,0,0,1.09,1.09l0.2,0m-18.88-31a1.09,1.09,0,0,0-1.09-1.09H330.65a1.09,1.09,0,0,0,0,2.18h34.26a1.09,1.09,0,0,0,1.09-1.09M323.9,304.86l0.85-10L327.63,284l6.71-14.55,0-.07,5.8-15.26,0-.11,2.42-9.19,4.91-7.94,5.16,8.06,2.76,9.2,0,0.07,5.61,15.05,0,0.07,6.81,14.87,2.86,10.62,0.92,9.93a1.09,1.09,0,0,0,2.17-.2l-0.93-10a0.85,0.85,0,0,0,0-.18L370,283.54a1.14,1.14,0,0,0-.06-0.17l-6.83-14.91-5.58-15-2.79-9.31a1.25,1.25,0,0,0-.12-0.27l-6.18-9.65a1.1,1.1,0,0,0-.92-0.5h0a1.09,1.09,0,0,0-.92.52l-5.9,9.55a1.12,1.12,0,0,0-.13.29l-2.45,9.29-5.77,15.17-6.73,14.6a0.92,0.92,0,0,0-.06.18l-2.93,11.06a1.07,1.07,0,0,0,0,.19l-0.85,10.09a1.09,1.09,0,0,0,1,1.18h0.1a1.09,1.09,0,0,0,1.09-1M170.39,246.24a1.09,1.09,0,0,0-.29-1.51l-12.57-8.49a1.07,1.07,0,0,0-.42-0.17l-15-2.67a1.09,1.09,0,0,0-.38,2.15l14.81,2.63,12.38,8.36a1.09,1.09,0,0,0,1.51-.29M143,304.43v-70a1.09,1.09,0,0,0-1.28-1.07l-14.85,2.67a1.06,1.06,0,0,0-.4.16l-13.07,8.49a1.09,1.09,0,1,0,1.19,1.83l12.88-8.37,13.35-2.4v68.66a1.09,1.09,0,1,0,2.18,0m-63.58.1v-68.6l13.21,2.46L105,246.63,105.71,265a0.87,0.87,0,0,0,0,.18l2.37,11.73-2.23,11.44a1,1,0,0,0,0,.14l-1,15.92a1.09,1.09,0,1,0,2.18.14l1-15.85,2.26-11.58a1.15,1.15,0,0,0,0-.42l-2.4-11.85L107.18,246a1.09,1.09,0,0,0-.49-0.87l-13.08-8.67a1.08,1.08,0,0,0-.4-0.16l-14.72-2.74a1.09,1.09,0,0,0-1.29,1.07v69.91a1.09,1.09,0,1,0,2.18,0m116-29.89a1.09,1.09,0,0,0-1.09-1.09H178.1a1.09,1.09,0,1,0,0,2.18h16.19a1.09,1.09,0,0,0,1.09-1.09m-16.92,31.17,12.1-2.42a1.07,1.07,0,0,0,.39-0.16l10-6.65a1.07,1.07,0,0,0,.3-0.3l7-10.27a1.09,1.09,0,0,0-1.8-1.22l-6.83,10.1-9.61,6.41-10.58,2.12V236.14l13.44,3,13,8.65A1.09,1.09,0,1,0,207,246l-13.14-8.76a1,1,0,0,0-.37-0.16l-15-3.32a1.09,1.09,0,0,0-1.33,1.07v70a1.09,1.09,0,0,0,1.09,1.09l0.22,0m105.46-69.67v37.18a1.11,1.11,0,0,1,.42-0.08h13.52l5.34-8.35,4.74-8.4,0,0,4.18-6.82-2-2.27-2.66-2.51-3.26-2.23L301,240.81l-3.16-1.66L294,237.53l-3.41-.74-4-.74ZM282.85,306a1.09,1.09,0,0,1-1.09-1.09V235.09a1.09,1.09,0,0,1,1.05-1.09l3.82-.14,0.24,0,4.14,0.77h0l3.53,0.77,0.19,0.06,4,1.69,0.08,0,3.22,1.69,0,0,3.22,1.84,0.07,0,3.37,2.3,0.13,0.11,2.76,2.61,0.06,0.07,2.61,2.91a1.09,1.09,0,0,1,.12,1.29l-4.59,7.49L305.09,266l0,0.05-5.67,8.88a1.09,1.09,0,0,1-.92.5h-11.6l24.81,26.39a1.09,1.09,0,1,1-1.59,1.49l-26.16-27.82V304.9a1.09,1.09,0,0,1-1.09,1.09" transform="translate(0 0)"/><path class="b" d="M129.43,158.09l11.63-10.8a1.09,1.09,0,0,0-1.49-1.6l-11.62,10.8a1.09,1.09,0,1,0,1.48,1.6M96.06,217.32l11.59-2.12a1.11,1.11,0,0,0,.42-0.17l10.17-6.94a1.11,1.11,0,0,0,.28-0.28l6.94-10a1.09,1.09,0,0,0-1.79-1.24l-6.82,9.84L107,213.1l-10.08,1.84V145.87a1.09,1.09,0,1,0-2.18,0v70.38a1.09,1.09,0,0,0,1.09,1.09l0.2,0M181,185.53a1.09,1.09,0,0,0-1.09-1.09H145.63a1.09,1.09,0,0,0,0,2.18h34.26a1.09,1.09,0,0,0,1.09-1.09M138.89,215.9l0.85-10.57,2.88-10.87,6.71-14.55,0-.07,5.8-15.26a0.9,0.9,0,0,0,0-.11l2.42-9.16,4.91-7.34,5.17,7.47,2.75,9.18,0,0.07,5.6,15.05,0,0.07,6.81,14.87,2.86,10.61,0.92,10.49a1.09,1.09,0,0,0,2.17-.19L187.93,205a1.29,1.29,0,0,0,0-.19L185,194a1.31,1.31,0,0,0-.06-0.17l-6.83-14.91-5.58-15-2.79-9.31a1.18,1.18,0,0,0-.15-0.31l-6.17-8.93a1.09,1.09,0,0,0-1.81,0l-5.9,8.82a1.11,1.11,0,0,0-.15.33l-2.45,9.29L147.33,179l-6.73,14.6a1.79,1.79,0,0,0-.06.18l-2.93,11.06a1,1,0,0,0,0,.19l-0.86,10.67a1.09,1.09,0,0,0,1,1.17h0.09a1.09,1.09,0,0,0,1.09-1m219.24-30.37a1.09,1.09,0,0,0-1.09-1.09H340.84a1.09,1.09,0,1,0,0,2.18H357a1.09,1.09,0,0,0,1.09-1.09m-16.92,32.05,12.1-2.42a1.14,1.14,0,0,0,.39-0.16l10-6.65a1,1,0,0,0,.3-0.3l7-10.27a1.09,1.09,0,0,0-1.81-1.22l-6.83,10.09-9.61,6.41-10.58,2.12V147l13.44,3,13,8.65a1.09,1.09,0,0,0,1.21-1.81l-13.14-8.76a1.11,1.11,0,0,0-.37-0.16l-15-3.32a1.09,1.09,0,0,0-1.33,1.07v70.85A1.09,1.09,0,0,0,341,217.6l0.21,0m-97.48-70.27V184.5l34.1-14.25-1.3-2.6-1.78-3.11-2.51-3.1-2.55-2.55-2.7-2.55-3-2.23L260.75,152l-3.42-1.63-3.41-1.34-3.57-.89-3.86-.74Zm0,39.72V215.8l4.91-.38,21.3-2.55,2.73-2.86,1.94-2.83,2.22-3.25,1.18-3.23v0l1.35-3.46,1-3.7,0.6-4,0.3-2.43H243.73Zm-1.09,31a1.09,1.09,0,0,1-1.09-1.09v-70.8a1.09,1.09,0,0,1,1.13-1.09l4,0.15,0.16,0,4,0.76h0.06l3.67,0.92,0.13,0,3.52,1.38,0.07,0,3.52,1.68,0.11,0.06,3.36,2.14,0.07,0,3.06,2.29,0.09,0.08,2.75,2.6,0,0,2.6,2.6L273.9,160l2.6,3.21a0.92,0.92,0,0,1,.1.15l1.84,3.21,0,0.05,1.83,3.67a1.08,1.08,0,0,1,.05.87,1.09,1.09,0,0,1-.6.63l-31.21,13h34a1.09,1.09,0,0,1,1.08,1.23l-0.46,3.67a0.06,0.06,0,0,1,0,0l-0.61,4.12a0.84,0.84,0,0,1,0,.13l-1.07,3.82,0,0.1-1.37,3.5-1.22,3.35a1.07,1.07,0,0,1-.12.24l-2.29,3.36-2,2.91-0.11.14-3.06,3.21a1.09,1.09,0,0,1-.66.33l-21.71,2.6h0l-6.1.47h-0.08m55-70.63v37.18a1,1,0,0,1,.41-0.08h13.52l5.34-8.35,4.74-8.4,0,0,4.18-6.82-2-2.27-2.66-2.52-3.26-2.23-3.16-1.81-3.16-1.66-3.85-1.63-3.41-.74-4-.74ZM296.52,218a1.09,1.09,0,0,1-1.09-1.09V146.39a1.09,1.09,0,0,1,1.05-1.09l3.82-.14a1,1,0,0,1,.24,0l4.14,0.76h0l3.53,0.77,0.19,0.06,4,1.69,0.08,0,3.22,1.69,0,0,3.22,1.84,0.07,0,3.37,2.3,0.13,0.11,2.76,2.61,0.07,0.07,2.6,2.91a1.09,1.09,0,0,1,.12,1.3l-4.59,7.49-4.74,8.41,0,0.05-5.67,8.88a1.09,1.09,0,0,1-.92.5h-11.6l24.81,26.39a1.09,1.09,0,1,1-1.59,1.49l-26.16-27.82v30.15a1.09,1.09,0,0,1-1.09,1.09m-98.26-70.58v37.18a1.08,1.08,0,0,1,.42-0.08H212.2l5.33-8.35,4.74-8.4,0,0,4.17-6.82-2-2.27-2.66-2.52-3.26-2.23-3.17-1.81-3.16-1.66-3.85-1.63-3.41-.74-4-.74ZM197.17,218a1.09,1.09,0,0,1-1.09-1.09V146.39a1.09,1.09,0,0,1,1.05-1.09l3.82-.14a1,1,0,0,1,.24,0l4.14,0.76h0l3.52,0.77,0.19,0.06,4,1.69,0.08,0,3.22,1.69,0,0,3.22,1.84,0.07,0,3.37,2.3,0.13,0.11,2.76,2.61,0.06,0.07,2.61,2.91a1.09,1.09,0,0,1,.12,1.3l-4.59,7.49-4.74,8.41,0,0.05-5.67,8.88a1.09,1.09,0,0,1-.92.5H201.2L226,213.11a1.09,1.09,0,1,1-1.59,1.49l-26.16-27.82v30.15a1.09,1.09,0,0,1-1.09,1.09" transform="translate(0 0)"/></svg>